# xmcd
#
# Track frame offsets:
#	150
#	19310
#	35771
#	52504
#	68807
#	83527
#	98449
#	118624
#	136966
#	152873
#	174708
#
# Disc length: 2481 seconds
# Revision: 0
# Processed by: cddbd v1.5.2PL0 Copyright (c) Steve Scherf et al.
# Submitted via: dBpowerAMP V12.0
#
DISCID=8309af0b
DTITLE=The Northern Lies - Midnight Medicine
DYEAR=2013
DGENRE=Country
TTITLE0=Midnight Medicine
TTITLE1=Bring Me Back
TTITLE2=Curtains
TTITLE3=Rain
TTITLE4=Go Out With Me Tonight
TTITLE5=My Sweet Lover
TTITLE6=Long Long Way
TTITLE7=The Promise
TTITLE8=Where Lovers Die
TTITLE9=Cheap Love
TTITLE10=Come Sunny Days
EXTD=
EXTT0=
EXTT1=
EXTT2=
EXTT3=
EXTT4=
EXTT5=
EXTT6=
EXTT7=
EXTT8=
EXTT9=
EXTT10=
PLAYORDER=
